<?xml version="1.0" encoding="utf-8"?>
<!-- Generator: Adobe Illustrator 18.1.0, SVG Export Plug-In . SVG Version: 6.00 Build 0)  -->
<!DOCTYPE svg PUBLIC "-//W3C//DTD SVG 1.1//EN" "http://www.w3.org/Graphics/SVG/1.1/DTD/svg11.dtd">
<svg version="1.1" id="Layer_1" xmlns="http://www.w3.org/2000/svg" xmlns:xlink="http://www.w3.org/1999/xlink" x="0px" y="0px"
	 viewBox="0 0 143.7 33.3" width="144" height="33" enable-background="new 0 0 143.7 33.3" xml:space="preserve">
<g>
	<g>
		<g>
			<path fill="#78A440" d="M28.5,18.9c-1.4,0.8-3,1.2-4.5,1.2c-1,0-2-0.2-2.8-0.5c-1.5,1.4-3.1,2.3-4,2.8c1.2,1.9,3.1,3.3,5.4,3.9
				c0.7,0.2,1.4,0.3,2.2,0.3c1.6,0,3.1-0.4,4.4-1.1c0.2-0.7,0.3-1.5,0.3-2.3C29.6,21.7,29.3,20.2,28.5,18.9z"/>
		</g>
		<g>
			<path fill="#78A440" d="M27,7.7c-0.1,0-0.2-0.1-0.3-0.1l0,0C26.8,7.6,26.9,7.7,27,7.7z"/>
			<path fill="#78A440" d="M26.7,7.7c-0.3,1.8-1,3.4-2.1,4.6c0.1,0.3,0.1,0.7,0.1,1c0,2.1-1.1,3.9-2.4,5.4c0.4,0,0.8,0.1,1.2,0.1
				c1.9,0,3.9-0.6,5.5-1.9c1.9-1.5,3-3.6,3.4-5.7C31,9.4,29.1,8.2,27,7.7C26.9,7.7,26.8,7.6,26.7,7.7L26.7,7.7z"/>
		</g>
		<g>
			<path fill="#78A440" d="M25.3,6.2c0-2.4-0.9-4.6-2.4-6.2c0,0-0.1,0-0.1,0c-2.1,0-4,0.8-5.7,2.3c1.6,1.7,2.2,3.9,2.2,6.1
				c0,0.2,0,0.3,0,0.5c0.4-0.1,0.7-0.1,1.1-0.1c0,0,0.1,0,0.1,0c1.4,0,2.8,0.7,3.6,2C24.8,9.4,25.3,7.9,25.3,6.2z"/>
		</g>
		<g>
			<path fill="#78A440" d="M9.2,0.2c-0.1,0-0.3,0-0.3,0c-1.5,1.6-2.3,3.7-2.3,6c0,0,0,0.1,0,0.1c0.1,0,0.2,0,0.3,0
				c2.5,0,4.7,1,6.3,2.5c1.3,0.1,2.7,0.8,3.4,2.2c0.4-0.8,1-1.3,1.6-1.6c0-0.1,0-0.2,0-0.3c0-2.5-1-4.9-3-6.7
				C13.4,0.9,11.3,0.2,9.2,0.2z"/>
		</g>
		<g>
			<polygon fill="#78A440" points="12,8.9 12,8.9 12,8.9 			"/>
			<path fill="#78A440" d="M11.7,8.9c-1.3-0.8-2.9-1.2-4.5-1.2c-0.5,0-1,0-1.6,0.1C3.3,8.2,1.3,9.6,0,11.3c0.4,2.1,1.5,4.2,3.3,5.6
				c1.3-1.8,3.2-3,5.2-3.3c0-0.1,0-0.2,0-0.3C8.5,10.8,10,9.3,11.7,8.9z"/>
		</g>
		<g>
			<path fill="#78A440" d="M3.9,18.9c-0.7,1.3-1,2.8-1,4.2c0,0.8,0.1,1.7,0.3,2.4c1.3,0.7,2.8,1.1,4.3,1.1c0.7,0,1.4-0.1,2.2-0.3
				c-0.2-0.8-0.3-1.6-0.3-2.4c0-1.9,0.6-3.7,1.7-5.3c-1-1.1-1.9-2.4-2.3-3.9C6.7,15.5,4.9,16.9,3.9,18.9z"/>
		</g>
		<g>
			<polygon fill="#78A440" points="11.4,27.2 11.4,27.2 11.3,27.3 11.3,27.3 			"/>
			<path fill="#78A440" d="M16.2,31.8c2-0.9,3.7-2.5,4.6-4.6c-2.3-0.9-4-2.7-4.8-4.8c-0.7-0.4-2.6-1.4-4.3-3c-0.6,1.3-1,2.7-1,4.1
				c0,1.2,0.2,2.4,0.8,3.6C12.5,29.4,14.3,31,16.2,31.8z"/>
			<polygon fill="#78A440" points="11.5,27.2 11.4,27.2 11.4,27.2 			"/>
		</g>
		<g>
			<path fill="#78A440" d="M45,21l-7.8,9.2H44c0.7,0,1.3,0.6,1.3,1.3c0,0.7-0.6,1.3-1.3,1.3h-9.8c-0.7,0-1.3-0.7-1.3-1.4
				c0-0.3,0.1-0.7,0.4-1l7.8-9.2h-6.8c-0.7,0-1.3-0.6-1.3-1.3c0-0.7,0.6-1.3,1.3-1.3h9.6c0.9,0,1.5,0.7,1.5,1.5
				C45.4,20.4,45.3,20.7,45,21z"/>
			<path fill="#78A440" d="M60.7,26.7c0,0,0,0-10.2,0c0.2,2.2,1.9,3.8,4.3,3.8c1.7,0,3.1-0.7,4.3-1.8c0.2-0.2,0.5-0.3,0.8-0.3
				c0.4,0,0.8,0.2,1,0.5c0.2,0.2,0.3,0.5,0.3,0.8c0,0.4-0.2,0.8-0.5,1.1c-1.4,1.5-3.7,2.5-6,2.5c-4.2,0-7.5-3.4-7.5-7.5
				c0-4.2,3.3-7.5,7.4-7.5c4.1,0,7.2,3.2,7.2,7.5C61.8,26.3,61.3,26.7,60.7,26.7z M54.6,20.9c-2.2,0-3.7,1.4-4,3.6c5,0,8.1,0,8.1,0
				C58.4,22.4,56.8,20.9,54.6,20.9z"/>
			<path fill="#78A440" d="M94.2,33.1c-0.9,0-1.6-0.7-1.6-1.6v-0.8c-0.9,1.6-2.7,2.5-4.7,2.5c-4.2,0-7.1-3.2-7.1-7.5
				c0-4.3,2.9-7.5,7.1-7.5c2.1,0,3.9,1,4.7,2.5v-8.5c0-0.9,0.7-1.6,1.6-1.6c0.9,0,1.6,0.7,1.6,1.6v19.3
				C95.8,32.4,95.1,33.1,94.2,33.1z M88.3,21c-2.6,0-4.3,2.1-4.3,4.7c0,2.6,1.7,4.7,4.3,4.7c2.6,0,4.3-2,4.3-4.7
				C92.6,23,90.9,21,88.3,21z"/>
			<path fill="#78A440" d="M112.2,26.7c0,0,0,0-10.2,0c0.2,2.2,1.9,3.8,4.3,3.8c1.7,0,3.1-0.7,4.3-1.8c0.2-0.2,0.5-0.3,0.8-0.3
				c0.4,0,0.8,0.2,1.1,0.5c0.2,0.2,0.3,0.5,0.3,0.8c0,0.4-0.2,0.8-0.5,1.1c-1.4,1.5-3.7,2.5-6,2.5c-4.2,0-7.5-3.4-7.5-7.5
				c0-4.2,3.3-7.5,7.4-7.5c4.1,0,7.2,3.2,7.2,7.5C113.4,26.3,112.8,26.7,112.2,26.7z M106.1,20.9c-2.2,0-3.7,1.4-4,3.6
				c5,0,8.1,0,8.1,0C109.9,22.4,108.3,20.9,106.1,20.9z"/>
			<path fill="#78A440" d="M121.4,33.2c-1.6,0-3.7-0.5-5.3-1.4c-0.5-0.3-0.8-0.8-0.8-1.2c0-0.2,0.1-0.3,0.1-0.5
				c0.2-0.5,0.6-0.8,1-0.8c0.2,0,0.5,0.1,0.7,0.2c1.2,0.7,2.6,1.2,4,1.2c1.6,0,3.4-0.5,3.4-1.7c0-1-0.9-1.3-4.2-2.5
				c-2.8-1-4.2-2.2-4.2-4.2c0-2.4,2.4-4,5.6-4c2.2,0,3.6,0.5,4.9,1.1c0.6,0.3,0.9,0.7,0.9,1.2c0,0.2,0,0.3-0.1,0.5
				c-0.2,0.5-0.7,0.9-1.2,0.9c-0.2,0-0.3,0-0.5-0.1c-1.2-0.6-2.4-0.9-3.8-0.9c-1.7,0-2.8,0.4-2.8,1.4c0,1.1,0.9,1.3,3.3,2.1
				c3,1,5.1,2,5.1,4.5C127.6,31.2,125.4,33.2,121.4,33.2z"/>
			<path fill="#78A440" d="M142.3,33.1c-0.4,0-0.9-0.2-1.2-0.5l-5.4-6.2l-1.6,1.3v3.8c0,0.9-0.7,1.6-1.6,1.6c-0.9,0-1.6-0.7-1.6-1.6
				V12.2c0-0.9,0.7-1.6,1.6-1.6c0.9,0,1.6,0.7,1.6,1.6v11.7l6.8-5.3c0.3-0.2,0.6-0.3,0.9-0.3c0.5,0,0.9,0.2,1.2,0.6
				c0.2,0.3,0.4,0.6,0.4,0.9c0,0.5-0.2,0.9-0.6,1.2l-4.6,3.6l5.3,6.1c0.2,0.3,0.4,0.6,0.4,1C143.7,32.4,143.1,33,142.3,33.1z"/>
			<path fill="#78A440" d="M71.4,18.1c-3.7,0-6.8,2.9-6.8,6.8v6.7c0,0.9,0.7,1.6,1.6,1.6c0.9,0,1.6-0.7,1.6-1.6V25
				c0-2.2,1.2-4,3.6-4c2.3,0,3.6,1.8,3.6,4v6.6c0,0.9,0.7,1.6,1.6,1.6c0.9,0,1.6-0.7,1.6-1.6v-6.7C78.2,21,75.1,18.1,71.4,18.1z"/>
		</g>
	</g>
	<g display="none">
		<path display="inline" fill="#78A440" d="M140.2,12.2c0-0.9,0.7-1.6,1.6-1.6c0.9,0,1.6,0.7,1.6,1.6c0,0.9-0.7,1.6-1.6,1.6
			C140.9,13.8,140.2,13.1,140.2,12.2z M143,12.2c0-0.7-0.5-1.2-1.2-1.2s-1.2,0.5-1.2,1.2c0,0.7,0.5,1.3,1.2,1.3S143,12.9,143,12.2z
			 M141.1,12.9v-1.4c0-0.1,0.1-0.2,0.2-0.2h0.6c0.4,0,0.6,0.2,0.6,0.5c0,0.2-0.1,0.4-0.3,0.5l0.2,0.5c0,0,0,0.1,0,0.1
			c0,0.1-0.1,0.2-0.2,0.2c-0.1,0-0.2-0.1-0.2-0.1l-0.3-0.5h-0.3c0,0,0,0,0,0v0.4c0,0.1-0.1,0.2-0.2,0.2
			C141.2,13.1,141.1,13,141.1,12.9z M142.1,11.9c0-0.1-0.1-0.2-0.3-0.2h-0.3c0,0,0,0,0,0V12c0,0,0,0,0,0h0.3
			C142,12.1,142.1,12,142.1,11.9z"/>
	</g>
</g>
<g>
</g>
<g>
</g>
<g>
</g>
<g>
</g>
<g>
</g>
<g>
</g>
</svg>
